<svg width="27" height="30" viewBox="0 0 27 30" fill="none" class="menu-icon" xmlns="http://www.w3.org/2000/svg">
<path d="M15.0883 16.3279C15.0221 16.3588 14.9515 16.425 14.9206 16.4912C14.8633 16.6103 14.8236 16.7427 14.7927 16.8706C14.5412 17.9824 14.2941 19.0941 14.0471 20.2059C14.0074 20.3868 13.9809 20.5677 13.9588 20.7529C13.9456 20.8853 14.0162 20.9471 14.1574 20.9515C14.3162 20.9559 14.4265 20.8941 14.4794 20.7397C14.5368 20.5853 14.5853 20.4265 14.625 20.2677C14.8368 19.3456 15.0397 18.4191 15.2471 17.4971C15.3177 17.1838 15.3794 16.8706 15.4456 16.5574C15.4544 16.3279 15.3044 16.2265 15.0883 16.3279Z" fill="white"/>
<path d="M24.6089 12.9618C24.1544 13.3632 24.2339 13.3191 23.903 13.4691C23.6691 13.575 23.2765 13.6853 22.3941 13.575C21.8074 13.5 20.9956 13.2397 20.6383 12.5691C20.4089 12.1324 20.3383 11.5809 20.3383 11.5809C20.3294 11.1794 20.2721 10.9235 20.8589 10.2265C21.3089 9.68823 21.6486 9.48088 21.8294 9.30441C22.178 8.97353 22.7294 8.61617 23.0647 7.9147C23.1971 7.63235 23.3956 6.72353 23.0074 5.57647C22.425 3.83823 20.9559 3.37941 20.9559 3.37941C20.9559 3.37941 22.3456 5.08676 22.2309 6.14117C22.1515 6.86912 21.6309 7.97647 20.0118 8.19265C19.3412 8.28088 17.9074 7.67647 17.4883 7.23529C16.8839 6.59559 16.5089 5.75735 16.3809 4.76029C16.3103 4.21765 16.3986 3.12794 16.7427 2.61618C17.5059 1.48235 19.2265 1.21765 19.2265 1.21765C19.2265 1.21765 17.2324 0.789704 15.9133 1.66765C15.0971 2.21029 13.9544 3.14559 14.4397 5.49706C14.5986 6.27353 15.728 8.36912 15.7147 9.39706C15.7059 10.1824 15.3309 12.6088 13.6897 12.9132C12.9397 13.0544 12.5515 12.9971 12.128 12.7897C10.5265 12 10.6809 9.46765 10.8927 8.54559C11.25 6.99706 11.4486 5.83235 10.8309 4.15147C10.4339 3.05735 9.86032 2.72647 9.41915 2.24118C9.02209 1.79118 7.08974 0.52941 6.80738 0.344116C7.08974 0.591175 8.77062 2.74412 9.03091 3.80294C9.50297 5.74853 8.45738 7.19559 7.76915 7.87059C6.95297 8.67353 6.52503 8.96029 6.00885 9.58676C5.46621 10.2397 4.55738 11.2765 4.14709 12.1544L4.12944 12.15C4.12503 12.1059 4.1118 12.0706 4.09415 12.0485C3.97503 11.8941 3.75885 11.5147 3.68385 11.4309C2.56768 10.1868 0.542677 10.8132 0.27356 10.8618C0.516207 10.8838 2.27209 11.0868 2.69562 12.3485C3.08385 13.5044 3.15885 14.7441 3.17209 15.3529C3.11915 15.7897 3.08827 16.2353 3.08827 16.6897C3.08827 22.6809 7.94121 27.5338 13.9324 27.5338C18.5162 27.5338 22.4383 24.6882 24.0221 20.6647C24.3486 19.9147 24.8559 18.4676 25.028 16.3897C25.0677 15.8956 25.0191 14.8632 25.3544 13.9897C25.7824 12.8868 26.6515 12.5868 26.6515 12.5868C26.6515 12.5868 25.6765 12.0309 24.6089 12.9618ZM11.2765 21.8779C11.2677 21.9176 11.2589 21.9441 11.2059 21.9397C10.5971 21.9397 9.98385 21.9397 9.37503 21.9397C9.36621 21.9397 9.35738 21.9353 9.33974 21.9309C9.54268 21.0088 9.75003 20.0912 9.95297 19.1647C9.75885 19.1647 9.57356 19.1647 9.38385 19.1647C9.32209 19.4338 9.26474 19.7029 9.20297 19.9721C9.0618 20.6074 8.92062 21.2426 8.77944 21.8779C8.77062 21.9176 8.75738 21.9397 8.70885 21.9397C8.10003 21.9397 7.49562 21.9397 6.8868 21.9397C6.87356 21.9397 6.86474 21.9353 6.84709 21.9309C6.90003 21.6926 6.95297 21.4588 7.00591 21.225C7.36327 19.6235 7.72062 18.0176 8.07356 16.4162C8.14856 16.0721 8.22797 15.7279 8.30297 15.3838C8.3118 15.3441 8.32062 15.3221 8.37356 15.3221C8.98238 15.3221 9.59562 15.3221 10.2044 15.3221C10.2133 15.3221 10.2221 15.3265 10.2397 15.3309C10.0677 16.1118 9.89121 16.8926 9.71915 17.6824C9.91327 17.6824 10.0986 17.6824 10.2883 17.6824C10.4647 16.8971 10.6368 16.1118 10.8133 15.3265C11.4574 15.3265 12.0927 15.3265 12.7368 15.3265C12.6927 15.5382 12.6441 15.7412 12.6 15.9441C12.2206 17.6603 11.8368 19.3765 11.4574 21.0882C11.3912 21.3574 11.3294 21.6176 11.2765 21.8779ZM17.2941 16.7691C17.1397 17.5985 16.9633 18.4235 16.7824 19.2441C16.6986 19.6368 16.5971 20.025 16.4868 20.4132C16.275 21.1809 15.7412 21.6662 14.9603 21.9221C14.6294 22.0324 14.2853 22.0676 13.9412 22.0721C13.5706 22.0721 13.2089 22.0279 12.8736 21.8868C12.3177 21.6529 11.9956 21.1324 12.0971 20.5632C12.2294 19.8265 12.3794 19.0941 12.5383 18.3618C12.6486 17.8456 12.7765 17.3338 12.9133 16.8221C13.1162 16.0721 13.6324 15.5868 14.3912 15.3353C15.0265 15.1235 15.6794 15.1015 16.328 15.2868C17.0559 15.5029 17.4265 16.0676 17.2941 16.7691ZM21.8868 16.65C21.5074 16.65 21.1324 16.65 20.7486 16.65C20.3559 18.4147 19.9633 20.175 19.5706 21.9397C18.9309 21.9397 18.2956 21.9397 17.6471 21.9397C18.0397 20.1794 18.428 18.4235 18.825 16.65C18.4412 16.65 18.0706 16.65 17.6912 16.65C17.7883 16.2044 17.8853 15.7721 17.9824 15.3309C19.3809 15.3309 20.775 15.3309 22.178 15.3309C22.0853 15.7721 21.9883 16.2044 21.8868 16.65Z" fill="white"/>
<path d="M4.9191 8.52794C4.9191 8.52794 4.31027 7.96764 4.15586 7.56176C3.96174 7.04117 4.13822 6.61323 4.33674 6.29117C4.87498 5.43529 5.44851 5.02058 5.58527 4.58382C5.85439 3.73235 5.11763 2.60294 5.11763 2.60294C5.11763 2.60294 6.3441 4.01911 6.61763 4.66764C6.80292 5.10882 7.11175 6.07941 6.42351 6.69264C6.09263 6.98382 5.22351 7.21764 5.02498 7.71176C4.88822 8.03823 4.9191 8.52794 4.9191 8.52794Z" fill="orange"/>
</svg>
